<?xml version="1.0" encoding="UTF-8"?>
<svg width="275px" height="54px" viewBox="0 0 275 54" version="1.1" xmlns="http://www.w3.org/2000/svg" xmlns:xlink="http://www.w3.org/1999/xlink">
    <title>编组 7备份</title>
    <g id="页面-1" stroke="none" stroke-width="1" fill="none" fill-rule="evenodd">
        <g id="我的星球-闲置" transform="translate(-16.000000, -544.000000)">
            <g id="编组-7备份" transform="translate(16.000000, 544.000000)">
                <rect id="矩形" stroke="#FFFFFF" stroke-width="0.5" fill-opacity="0.500357675" fill="#112A59" x="5.25" y="0.25" width="264.5" height="53.5" rx="26.75"></rect>
                <circle id="椭圆形" fill="#091B43" cx="32" cy="27" r="21"></circle>
                <path d="M4.01655501,11.5149206 C4.28743816,11.0312469 4.90140866,10.8574759 5.38789651,11.126792 C5.87438435,11.3961082 6.0491665,12.006527 5.77828335,12.4902006 C3.32202498,16.8759565 2.01642226,21.8027371 2.01642226,26.9165204 C2.01642226,32.093825 3.35473324,37.0790926 5.86941759,41.5043839 C6.14331222,41.9863781 5.97234065,42.5978628 5.4875419,42.870173 C5.00274314,43.1424832 4.38770063,42.9725007 4.11380599,42.4905064 C1.42939666,37.7665365 0,32.4419707 0,26.9165204 C0,21.4588804 1.39446295,16.1967798 4.01655501,11.5149206 Z" id="路径" fill="#FFFFFF" fill-rule="nonzero"></path>
                <path d="M273.016555,11.5149206 C273.287438,11.0312469 273.901409,10.8574759 274.387897,11.126792 C274.874384,11.3961082 275.049166,12.006527 274.778283,12.4902006 C272.322025,16.8759565 271.016422,21.8027371 271.016422,26.9165204 C271.016422,32.093825 272.354733,37.0790926 274.869418,41.5043839 C275.143312,41.9863781 274.972341,42.5978628 274.487542,42.870173 C274.002743,43.1424832 273.387701,42.9725007 273.113806,42.4905064 C270.429397,37.7665365 269,32.4419707 269,26.9165204 C269,21.4588804 270.394463,16.1967798 273.016555,11.5149206 Z" id="路径" fill="#FFFFFF" fill-rule="nonzero" transform="translate(272.000000, 27.000000) scale(-1, 1) translate(-272.000000, -27.000000) "></path>
            </g>
        </g>
    </g>
</svg>