<?xml version="1.0" encoding="UTF-8"?>
<svg width="24px" height="24px" viewBox="0 0 24 24" version="1.1" xmlns="http://www.w3.org/2000/svg" xmlns:xlink="http://www.w3.org/1999/xlink">
    <title>能量度</title>
    <g id="页面-1" stroke="none" stroke-width="1" fill="none" fill-rule="evenodd">
        <g id="挖矿" transform="translate(-220.000000, -225.000000)" fill-rule="nonzero">
            <g id="能量度" transform="translate(220.000000, 225.000000)">
                <path d="M10.8179882,0.334172477 L6.42968962,1.69055737 C3.87650114,2.40864281 1.88180506,4.56289442 1.24350793,7.19588762 L0.206273941,11.5841862 C-0.432025524,14.217156 0.445636533,16.9299304 2.36053024,18.8448218 L5.63182056,21.9565261 C7.62650258,23.7916339 10.419049,24.4299333 12.9722609,23.7118455 L17.2807782,22.435249 C19.8339667,21.6373752 21.8286627,19.5629119 22.4669599,16.9299187 L23.5041939,12.5416201 C24.1424933,9.90865039 23.2648313,7.1958759 21.3499376,5.28098454 L18.0786472,2.16928022 C16.1637512,0.174598197 13.3712001,-0.463689549 10.8180116,0.334172477 L10.8179882,0.334172477 Z" id="路径" fill="#5D2F1D"></path>
                <path d="M11.53609,1.61076906 L6.1105645,3.36608849 C4.35524507,3.92459964 3.07864145,5.36077051 2.75949289,7.11608993 L1.56268462,12.7012015 C1.16374775,14.4565209 1.80204721,16.2916403 3.15842977,17.4884299 L7.46694705,21.3182126 C8.82333195,22.5150209 10.6584327,22.9139577 12.4137615,22.3554466 L17.839287,20.6001272 C19.5148204,20.041616 20.7914053,18.6054451 21.1903586,16.8501257 L22.3871669,11.2650142 C22.7861037,9.50969476 22.1478043,7.67457531 20.7914217,6.47778578 L16.4829044,2.64800306 C15.1265195,1.45119478 13.2914188,1.05225791 11.53609,1.61076906 Z" id="路径" fill="#E7C24B"></path>
                <path d="M18.3179911,8.07353327 L15.445654,5.36075879 C14.488206,4.40331076 13.0520281,4.0841622 11.7754339,4.48309908 L7.94565114,5.67990735 C6.74884287,6.07884422 5.79139484,7.03629225 5.39246266,8.23309583 L4.59458891,11.9830973 C4.27544035,13.2596939 4.67437629,14.6958718 5.71161122,15.5735362 L8.58394826,18.2863106 C9.54139629,19.2437587 10.9775742,19.5629072 12.2541684,19.1639704 L16.0041699,18.0469481 C17.2009781,17.6480112 18.1584262,16.6905632 18.5573584,15.4937596 L19.4350181,11.7437581 C19.6743807,10.3873732 19.2754436,9.03098364 18.3179958,8.07353796 L18.3179911,8.07353327 Z" id="路径" fill="#BE7936"></path>
                <path d="M18.3179911,8.07353327 L15.445654,5.36075879 C14.488206,4.40331076 13.0520281,4.0841622 11.7754339,4.48309908 L7.94565114,5.67990735 C6.66905456,6.07884422 5.63182056,7.11607822 5.39246266,8.47246311 L5.39246266,8.63203763 C5.71161122,7.43522935 6.66905924,6.39799302 7.94565114,6.07884914 L11.6956526,4.80225256 C12.9722492,4.40331569 14.4084271,4.72246518 15.3658728,5.67991227 L18.2382098,8.39268675 C19.1956578,9.35013478 19.6743807,10.7065173 19.3552321,11.9831256 L18.4775724,15.7331271 C18.4775724,15.6533397 18.5573598,15.5735526 18.5573598,15.5735526 L19.4350195,11.7437698 C19.6743821,10.3873849 19.275445,9.03099536 18.3179972,8.07354968 L18.3179911,8.07353327 Z" id="路径" fill="#945224"></path>
                <path d="M16.0041699,17.9671621 L12.2541684,19.1639704 C10.9775718,19.5629072 9.54139394,19.2437577 8.58394826,18.2863106 L5.63182994,15.5735362 C4.67438191,14.6160881 4.19565907,13.2597056 4.51480763,11.9830973 L5.39246735,8.23309583 C5.39246735,8.31288321 5.31267997,8.39267035 5.31267997,8.39267035 L4.43502026,12.2224531 C4.1158717,13.4990497 4.51480763,14.9352276 5.55204256,15.812892 L8.42437961,18.5256664 C9.38182763,19.4831145 10.8180055,19.802263 12.0945998,19.4033262 L15.8446012,18.2863038 C17.1211978,17.887367 18.1584318,16.850133 18.3977897,15.4937481 L18.3977897,15.3341736 C18.1584271,16.6107702 17.2009814,17.6480041 16.0041638,17.9671433 L16.0041699,17.9671621 Z" id="路径" fill="#FFFFFF" opacity="0.3"></path>
                <path d="M20.711617,6.47779047 L16.4030997,2.64800774 C15.0467148,1.45119947 13.2116141,1.0522626 11.4562848,1.61077375 L6.11054106,3.36609318 C5.23288135,3.68524174 4.51479591,4.16396692 3.95628476,4.80226404 C4.4350076,4.3235412 5.07330707,4.0043903 5.71160419,3.76503005 L11.0573484,2.00971062 C12.7328819,1.45119947 14.6477873,1.85013611 16.0041628,3.04694462 L20.2328988,6.79694606 C21.5892837,7.99375433 22.1477949,9.8288691 21.828644,11.5841745 L20.7116217,17.0895047 C20.3924731,18.6054639 19.4350251,19.8820605 17.9988472,20.5203576 C19.6743807,19.9618464 20.8711842,18.5256756 21.2701375,16.8501374 L22.4669458,11.2650259 C22.7063084,9.42991817 22.0680089,7.67458702 20.7116264,6.4777975 L20.711617,6.47779047 Z" id="路径" fill="#FFFFFF" opacity="0.3"></path>
                <path d="M10.7382069,8.47248655 L14.8073569,8.39269918 C14.8871443,8.39269918 14.9669314,8.55227369 14.8871443,8.63206177 L12.5733137,11.1852503 C12.4935263,11.2650376 12.5733137,11.4246128 12.6531011,11.4246128 L14.8073574,11.4246128 C14.8871448,11.4246128 14.9669319,11.5841874 14.8871448,11.6639754 L10.4988462,16.21186 C10.4190588,16.2916474 10.2594836,16.21186 10.2594836,16.0522855 L11.1371433,13.1001672 C11.1371433,13.0203798 11.1371433,12.9405926 11.0573559,12.9405926 L9.14245988,12.9405926 C8.98288537,12.9405926 8.82331132,12.7810181 8.90309729,12.6214441 L10.4988424,8.55229408 C10.658417,8.47250671 10.658417,8.47250671 10.738205,8.47250671 L10.7382069,8.47248655 Z" id="路径" fill="#945224"></path>
                <path d="M10.8179882,8.23310943 L14.5679896,8.23310943 C14.647777,8.23310943 14.7275641,8.39269379 14.647777,8.47248186 L12.653095,11.0256703 C12.5733076,11.1054577 12.653095,11.2650329 12.7328824,11.2650329 L14.8073527,11.2650329 C14.8871401,11.2650329 14.9669272,11.4246075 14.8871401,11.5043955 L10.5786228,15.9724754 C10.4988354,16.0522628 10.3392602,15.9724754 10.3392602,15.8129009 L11.2967082,12.9405638 C11.2967082,12.8607764 11.2967082,12.7809893 11.2169208,12.7809893 L9.22223882,12.7809893 C9.06266431,12.7809893 8.90309026,12.6214148 8.98287623,12.4618407 L10.4190471,8.47247202 C10.4988345,8.3128975 10.6584097,8.23310943 10.817984,8.23310943 L10.8179882,8.23310943 Z" id="路径" fill="#EAC357"></path>
                <path d="M10.5786443,8.55226783 C10.5786443,8.47248046 10.6584317,8.47248046 10.6584317,8.47248046 L13.929722,8.23311786 L10.7382364,8.23311786 C10.5786619,8.23311786 10.4190879,8.31290524 10.4190879,8.47248046 L9.78078841,10.1480139 L10.5786622,8.55226877 L10.5786443,8.55226783 Z" id="路径" fill="#FFFFFF" opacity="0.3"></path>
            </g>
        </g>
    </g>
</svg>