<?xml version="1.0" encoding="UTF-8"?>
<svg width="24px" height="24px" viewBox="0 0 24 24" version="1.1" xmlns="http://www.w3.org/2000/svg" xmlns:xlink="http://www.w3.org/1999/xlink">
    <title>形状备份 8</title>
    <g id="页面-1" stroke="none" stroke-width="1" fill="none" fill-rule="evenodd">
        <g id="星球盲盒-购买后" transform="translate(-100.000000, -498.000000)" fill="#90AD73" fill-rule="nonzero">
            <g id="编组-8" transform="translate(100.000000, 444.000000)">
                <g id="编组-4备份-2" transform="translate(0.000000, 43.000000)">
                    <g id="防御-1" transform="translate(0.000000, 11.000000)">
                        <path d="M11.6526585,23.9476174 L11.6526587,23.9476175 C5.28635168,21.8972993 0.992542742,16.1202319 1.00000972,9.61504912 L1.00000972,3.87018609 L1.00000972,3.87016478 C0.99964203,3.39616189 1.32185145,2.97877233 1.79095956,2.845587 L11.6966735,0.0427470724 L11.6966734,0.0427470796 C11.8979926,-0.0142490241 12.1119181,-0.0142490241 12.3132381,0.0427470653 L22.207969,2.84558699 L22.207969,2.84558699 C22.6775077,2.97839081 23.0002317,3.39588187 22.9999935,3.87017978 L22.9999935,9.61879304 L22.9999935,9.61894198 C23.0061134,16.1226247 18.7123398,21.8976145 12.347193,23.94661 L12.347193,23.94661 C12.2350399,23.9824186 12.1176596,24.0004292 11.9995843,23.9999741 L11.9995843,23.9999741 C11.8817497,24.0007721 11.7645523,23.9831212 11.6525274,23.9476766 L11.6526585,23.9476174 Z M3.20005191,4.66915801 L3.20005191,9.61504904 L3.20005191,9.61511716 C3.19391812,15.0699131 6.71265368,19.9438249 12.0003263,21.8045848 L12.0003252,21.8045848 C17.287044,19.9444528 20.8056191,15.0719886 20.8005198,9.61826773 L20.8005198,4.66915152 L12.005198,2.17780493 L3.20005191,4.66915801 Z" id="形状"></path>
                    </g>
                </g>
            </g>
        </g>
    </g>
</svg>