<?xml version="1.0" encoding="UTF-8"?>
<svg width="32px" height="32px" viewBox="0 0 32 32" version="1.1" xmlns="http://www.w3.org/2000/svg" xmlns:xlink="http://www.w3.org/1999/xlink">
    <title>Button / 48px</title>
    <g id="页面-1" stroke="none" stroke-width="1" fill="none" fill-rule="evenodd">
        <g id="Menu备份" transform="translate(-320.000000, -64.000000)" fill="#000000">
            <g id="Button-/-48px" transform="translate(320.000000, 64.000000)">
                <g id="Close-Square" transform="translate(7.864889, 7.864889)">
                    <path d="M1.30298124,0.162562094 L1.39270757,0.240021458 L8.12902214,6.97670688 L14.8592436,0.246111532 C15.1716631,-0.0663079015 15.678195,-0.0663079015 15.9906145,0.246111532 C16.2746321,0.530129199 16.3004519,0.97457046 16.0680738,1.28775605 L15.9906145,1.37748238 L9.26002214,8.10770688 L16.0088847,14.8561986 C16.3213041,15.168618 16.3213041,15.67515 16.0088847,15.9875694 C15.724867,16.2715871 15.2804258,16.2974069 14.9672402,16.0650288 L14.8775138,15.9875694 L8.12902214,9.23870688 L1.39879764,15.9692992 C1.08637821,16.2817187 0.579846224,16.2817187 0.26742679,15.9692992 C-0.0165908765,15.6852816 -0.0424106644,15.2408403 0.189967427,14.9276547 L0.26742679,14.8379284 L6.99802214,8.10770688 L0.261336716,1.37139231 C-0.051082717,1.05897287 -0.051082717,0.552440891 0.261336716,0.240021458 C0.545354383,-0.0439962086 0.989795645,-0.0698159965 1.30298124,0.162562094 Z" id="Combined-Shape"></path>
                </g>
            </g>
        </g>
    </g>
</svg>