<?xml version="1.0" encoding="UTF-8"?>
<svg width="64px" height="64px" viewBox="0 0 64 64" version="1.1" xmlns="http://www.w3.org/2000/svg" xmlns:xlink="http://www.w3.org/1999/xlink">
    <title>编组 39</title>
    <defs>
        <filter x="-89.6%" y="-95.2%" width="279.1%" height="290.3%" filterUnits="objectBoundingBox" id="filter-1">
            <feGaussianBlur stdDeviation="8" in="SourceGraphic"></feGaussianBlur>
        </filter>
        <filter x="-44.8%" y="-47.6%" width="189.6%" height="195.2%" filterUnits="objectBoundingBox" id="filter-2">
            <feGaussianBlur stdDeviation="4" in="SourceGraphic"></feGaussianBlur>
        </filter>
    </defs>
    <g id="页面-1" stroke="none" stroke-width="1" fill="none" fill-rule="evenodd">
        <g id="挖矿" transform="translate(-252.000000, -648.000000)">
            <g id="编组-39" transform="translate(252.000000, 648.000000)">
                <rect id="矩形" fill-opacity="0.15" fill="#BDDFFF" fill-rule="nonzero" x="0" y="0" width="64" height="64" rx="20"></rect>
                <g id="编组-5" transform="translate(19.000000, 16.916041)">
                    <path d="M23.6545174,9.68101158 C24.2068021,9.68101158 24.6545174,10.1287268 24.6545174,10.6810116 L24.654,12.8999873 L24.7759052,12.900843 C25.0413384,12.900843 25.2958818,13.0063716 25.483454,13.1941786 L26.5059373,14.2179415 C26.6932032,14.4054418 26.7983884,14.6596062 26.7983884,14.924606 L26.7983884,26.976237 C26.7983884,27.2412368 26.6932032,27.4954012 26.5059373,27.6829015 L25.483454,28.7066644 C25.2958818,28.8944714 25.0413384,29 24.7759052,29 L19.2820691,29 C18.8984739,29 18.5633667,28.7834637 18.3958026,28.4635868 L8.46143829,28.4642113 C8.29419705,28.7827376 7.96021285,29 7.5754843,29 L2.02248326,29 C1.75705005,29 1.50250661,28.8944714 1.3149344,28.7066644 L0.292451139,27.6829015 C0.105185218,27.4954012 2.69698837e-15,27.2412368 0,26.976237 L0,14.924606 C-1.03165384e-15,14.6596062 0.105185218,14.4054418 0.292451139,14.2179415 L1.3149344,13.1941786 C1.50250661,13.0063716 1.75705005,12.900843 2.02248326,12.900843 L2.143,12.8999873 L2.14387108,10.6810116 C2.14387108,10.1287268 2.59158633,9.68101158 3.14387108,9.68101158 L23.6545174,9.68101158 Z M25.2624207,3.77798734 C25.8147054,3.77798734 26.2624207,4.22570259 26.2624207,4.77798734 L26.2624207,6.53445731 C26.2624207,7.08674206 25.8147054,7.53445731 25.2624207,7.53445731 L1.53596777,7.53445731 C0.983683019,7.53445731 0.535967769,7.08674206 0.535967769,6.53445731 L0.535967769,4.77798734 C0.535967769,4.22570259 0.983683019,3.77798734 1.53596777,3.77798734 L25.2624207,3.77798734 Z" id="形状结合" fill-opacity="0.598884" fill="#2E59FF" filter="url(#filter-1)"></path>
                    <path d="M23.6545174,9.68101158 C24.2068021,9.68101158 24.6545174,10.1287268 24.6545174,10.6810116 L24.654,12.8999873 L24.7759052,12.900843 C25.0413384,12.900843 25.2958818,13.0063716 25.483454,13.1941786 L26.5059373,14.2179415 C26.6932032,14.4054418 26.7983884,14.6596062 26.7983884,14.924606 L26.7983884,26.976237 C26.7983884,27.2412368 26.6932032,27.4954012 26.5059373,27.6829015 L25.483454,28.7066644 C25.2958818,28.8944714 25.0413384,29 24.7759052,29 L19.2820691,29 C18.8984739,29 18.5633667,28.7834637 18.3958026,28.4635868 L8.46143829,28.4642113 C8.29419705,28.7827376 7.96021285,29 7.5754843,29 L2.02248326,29 C1.75705005,29 1.50250661,28.8944714 1.3149344,28.7066644 L0.292451139,27.6829015 C0.105185218,27.4954012 2.69698837e-15,27.2412368 0,26.976237 L0,14.924606 C-1.03165384e-15,14.6596062 0.105185218,14.4054418 0.292451139,14.2179415 L1.3149344,13.1941786 C1.50250661,13.0063716 1.75705005,12.900843 2.02248326,12.900843 L2.143,12.8999873 L2.14387108,10.6810116 C2.14387108,10.1287268 2.59158633,9.68101158 3.14387108,9.68101158 L23.6545174,9.68101158 Z M25.2624207,3.77798734 C25.8147054,3.77798734 26.2624207,4.22570259 26.2624207,4.77798734 L26.2624207,6.53445731 C26.2624207,7.08674206 25.8147054,7.53445731 25.2624207,7.53445731 L1.53596777,7.53445731 C0.983683019,7.53445731 0.535967769,7.08674206 0.535967769,6.53445731 L0.535967769,4.77798734 C0.535967769,4.22570259 0.983683019,3.77798734 1.53596777,3.77798734 L25.2624207,3.77798734 Z" id="形状结合" fill-opacity="0.598884" fill="#2E59FF" filter="url(#filter-2)"></path>
                    <rect id="矩形" fill-opacity="0.7" fill="#FFFFFF" fill-rule="nonzero" x="2.14387108" y="9.68101158" width="22.5106463" height="18.7823498" rx="1"></rect>
                    <path d="M2.02248326,12.900843 L24.7759052,12.900843 C25.0413384,12.900843 25.2958818,13.0063716 25.483454,13.1941786 L26.5059373,14.2179415 C26.6932032,14.4054418 26.7983884,14.6596062 26.7983884,14.924606 L26.7983884,26.976237 C26.7983884,27.2412368 26.6932032,27.4954012 26.5059373,27.6829015 L25.483454,28.7066644 C25.2958818,28.8944714 25.0413384,29 24.7759052,29 L19.2820691,29 C18.7493843,29 18.310203,28.5824341 18.2833413,28.0504271 L18.2708493,27.8030187 C18.2439876,27.2710116 17.8048063,26.8534457 17.2721216,26.8534457 L9.5754843,26.8534457 C9.02319955,26.8534457 8.5754843,27.301161 8.5754843,27.8534457 L8.5754843,28 C8.5754843,28.5522847 8.12776905,29 7.5754843,29 L2.02248326,29 C1.75705005,29 1.50250661,28.8944714 1.3149344,28.7066644 L0.292451139,27.6829015 C0.105185218,27.4954012 2.69698837e-15,27.2412368 0,26.976237 L0,14.924606 C-1.03165384e-15,14.6596062 0.105185218,14.4054418 0.292451139,14.2179415 L1.3149344,13.1941786 C1.50250661,13.0063716 1.75705005,12.900843 2.02248326,12.900843 Z" id="矩形" fill="#FFFFFF"></path>
                    <path d="M1.108921,3.47334929 L23.4301475,3.47334929 C23.9824322,3.47334929 24.4301475,3.92106454 24.4301475,4.47334929 L24.4301475,6.22981926 C24.4301475,6.78210401 23.9824322,7.22981926 23.4301475,7.22981926 L1.108921,7.22981926 C0.55663625,7.22981926 0.108921,6.78210401 0.108921,6.22981926 L0.108921,4.47334929 C0.108921,3.92106454 0.55663625,3.47334929 1.108921,3.47334929 Z" id="矩形" fill="#FFFFFF" transform="translate(12.269534, 5.351584) rotate(-17.000000) translate(-12.269534, -5.351584) "></path>
                </g>
            </g>
        </g>
    </g>
</svg>