<?xml version="1.0" encoding="UTF-8"?>
<svg width="44px" height="44px" viewBox="0 0 44 44" version="1.1" xmlns="http://www.w3.org/2000/svg" xmlns:xlink="http://www.w3.org/1999/xlink">
    <title>编组 39</title>
    <defs>
        <filter x="-50.0%" y="-50.0%" width="200.0%" height="200.0%" filterUnits="objectBoundingBox" id="filter-1">
            <feGaussianBlur stdDeviation="4" in="SourceGraphic"></feGaussianBlur>
        </filter>
        <filter x="-25.0%" y="-25.0%" width="150.0%" height="150.0%" filterUnits="objectBoundingBox" id="filter-2">
            <feGaussianBlur stdDeviation="2" in="SourceGraphic"></feGaussianBlur>
        </filter>
        <path d="M12.01359,0 C13.662515,0 15.2162992,0.31292517 16.6749717,0.93877551 C18.1336362,1.56462585 19.4065685,2.42176871 20.4937712,3.51020408 C21.580974,4.59863946 22.4371461,5.87301499 23.0622877,7.33333333 C23.6874292,8.79365168 24,10.3491975 24,12 C24,13.6689334 23.6874292,15.2290338 23.0622877,16.6802721 C22.4371461,18.1315184 21.580974,19.4013605 20.4937712,20.4897959 C19.4065685,21.5782313 18.1336362,22.4353741 16.6749717,23.0612245 C15.2163072,23.6870748 13.662523,24 12.01359,24 C10.3465468,24 8.78370081,23.6870748 7.32502831,23.0612245 C5.86636378,22.4353741 4.59343148,21.5782313 3.50622877,20.4897959 C2.41902605,19.4013605 1.56285391,18.1315184 0.937712344,16.6802721 C0.312570781,15.2290258 0,13.6689254 0,12 C0,10.3492055 0.312570781,8.79365965 0.937712344,7.33333333 C1.56285391,5.87301499 2.41902605,4.59863946 3.50622877,3.51020408 C4.59343148,2.42176871 5.86636378,1.56462585 7.32502831,0.93877551 C8.78369284,0.31292517 10.3465547,0 12.01359,0 Z" id="path-3"></path>
        <filter x="-29.2%" y="-20.8%" width="158.3%" height="158.3%" filterUnits="objectBoundingBox" id="filter-4">
            <feOffset dx="0" dy="2" in="SourceAlpha" result="shadowOffsetOuter1"></feOffset>
            <feGaussianBlur stdDeviation="2" in="shadowOffsetOuter1" result="shadowBlurOuter1"></feGaussianBlur>
            <feComposite in="shadowBlurOuter1" in2="SourceAlpha" operator="out" result="shadowBlurOuter1"></feComposite>
            <feColorMatrix values="0 0 0 0 0.0557217466   0 0 0 0 0.239916201   0 0 0 0 0.627763057  0 0 0 0.5 0" type="matrix" in="shadowBlurOuter1"></feColorMatrix>
        </filter>
        <path d="M18.8629672,13.6598639 C19.3340875,13.6598639 19.7327293,13.4920634 20.0588901,13.1564626 C20.385051,12.8208626 20.5481314,12.4172327 20.5481314,11.9455782 C20.5481314,11.4739238 20.385051,11.0748299 20.0588901,10.7482993 C19.7327293,10.4217687 19.3340875,10.2585034 18.8629672,10.2585034 L13.7531144,10.2585034 L13.7531144,5.14285714 C13.7531144,4.6712027 13.5855039,4.26757281 13.2502831,3.93197279 C12.9150632,3.59637277 12.5118904,3.42857143 12.0407701,3.42857143 C11.5696498,3.42857143 11.1710079,3.59637197 10.8448471,3.93197279 C10.5186863,4.26757281 10.3556059,4.6712027 10.3556059,5.14285714 L10.3556059,10.2585034 L5.24575311,10.2585034 C4.77463282,10.2585034 4.37599094,10.4217687 4.04983012,10.7482993 C3.72366931,11.0748299 3.5605889,11.4739238 3.5605889,11.9455782 C3.5605889,12.4172327 3.72366931,12.8208626 4.04983012,13.1564626 C4.37599094,13.4920626 4.77463282,13.6598639 5.24575311,13.6598639 L10.3556059,13.6598639 L10.3556059,18.7482993 C10.3556059,19.2199538 10.5186863,19.6235837 10.8448471,19.9591837 C11.1710079,20.2947837 11.5696498,20.462585 12.0407701,20.462585 C12.5118904,20.462585 12.9150632,20.2947845 13.2502831,19.9591837 C13.5855031,19.6235837 13.7531144,19.2199538 13.7531144,18.7482993 L13.7531144,13.6598639 L18.8629672,13.6598639 Z" id="path-5"></path>
        <filter x="-41.2%" y="-29.4%" width="182.4%" height="182.2%" filterUnits="objectBoundingBox" id="filter-6">
            <feOffset dx="0" dy="2" in="SourceAlpha" result="shadowOffsetOuter1"></feOffset>
            <feGaussianBlur stdDeviation="2" in="shadowOffsetOuter1" result="shadowBlurOuter1"></feGaussianBlur>
            <feColorMatrix values="0 0 0 0 0.0557217466   0 0 0 0 0.239916201   0 0 0 0 0.627763057  0 0 0 0.5 0" type="matrix" in="shadowBlurOuter1"></feColorMatrix>
        </filter>
    </defs>
    <g id="页面-1" stroke="none" stroke-width="1" fill="none" fill-rule="evenodd">
        <g id="我的星球-闲置" transform="translate(-315.000000, -627.000000)">
            <g id="编组-8" transform="translate(16.000000, 622.000000)">
                <g id="编组-39备份" transform="translate(299.000000, 5.000000)">
                    <rect id="矩形" fill-opacity="0.15" fill="#BDDFFF" fill-rule="nonzero" x="0" y="0" width="44" height="44" rx="12"></rect>
                    <g id="加" transform="translate(10.000000, 10.000000)">
                        <path d="M12.01359,0 C13.662515,0 15.2162992,0.31292517 16.6749717,0.93877551 C18.1336362,1.56462585 19.4065685,2.42176871 20.4937712,3.51020408 C21.580974,4.59863946 22.4371461,5.87301499 23.0622877,7.33333333 C23.6874292,8.79365168 24,10.3491975 24,12 C24,13.6689334 23.6874292,15.2290338 23.0622877,16.6802721 C22.4371461,18.1315184 21.580974,19.4013605 20.4937712,20.4897959 C19.4065685,21.5782313 18.1336362,22.4353741 16.6749717,23.0612245 C15.2163072,23.6870748 13.662523,24 12.01359,24 C10.3465468,24 8.78370081,23.6870748 7.32502831,23.0612245 C5.86636378,22.4353741 4.59343148,21.5782313 3.50622877,20.4897959 C2.41902605,19.4013605 1.56285391,18.1315184 0.937712344,16.6802721 C0.312570781,15.2290258 0,13.6689254 0,12 C0,10.3492055 0.312570781,8.79365965 0.937712344,7.33333333 C1.56285391,5.87301499 2.41902605,4.59863946 3.50622877,3.51020408 C4.59343148,2.42176871 5.86636378,1.56462585 7.32502831,0.93877551 C8.78369284,0.31292517 10.3465547,0 12.01359,0 Z M12.0407701,3.42857143 C11.5696498,3.42857143 11.1710079,3.59637197 10.8448471,3.93197279 C10.5186863,4.26757281 10.3556059,4.6712027 10.3556059,5.14285714 L10.3556059,10.2585034 L5.24575311,10.2585034 C4.77463282,10.2585034 4.37599094,10.4217687 4.04983012,10.7482993 C3.72366931,11.0748299 3.5605889,11.4739238 3.5605889,11.9455782 C3.5605889,12.4172327 3.72366931,12.8208626 4.04983012,13.1564626 C4.37599094,13.4920626 4.77463282,13.6598639 5.24575311,13.6598639 L10.3556059,13.6598639 L10.3556059,18.7482993 C10.3556059,19.2199538 10.5186863,19.6235837 10.8448471,19.9591837 C11.1710079,20.2947837 11.5696498,20.462585 12.0407701,20.462585 C12.5118904,20.462585 12.9150632,20.2947845 13.2502831,19.9591837 C13.5855031,19.6235837 13.7531144,19.2199538 13.7531144,18.7482993 L13.7531144,13.6598639 L18.8629672,13.6598639 C19.3340875,13.6598639 19.7327293,13.4920634 20.0588901,13.1564626 C20.385051,12.8208626 20.5481314,12.4172327 20.5481314,11.9455782 C20.5481314,11.4739238 20.385051,11.0748299 20.0588901,10.7482993 C19.7327293,10.4217687 19.3340875,10.2585034 18.8629672,10.2585034 L13.7531144,10.2585034 L13.7531144,5.14285714 C13.7531144,4.6712027 13.5855039,4.26757281 13.2502831,3.93197279 C12.9150632,3.59637277 12.5118904,3.42857143 12.0407701,3.42857143 Z" id="形状结合" fill-opacity="0.598884" fill="#2E59FF" filter="url(#filter-1)"></path>
                        <path d="M12.01359,0 C13.662515,0 15.2162992,0.31292517 16.6749717,0.93877551 C18.1336362,1.56462585 19.4065685,2.42176871 20.4937712,3.51020408 C21.580974,4.59863946 22.4371461,5.87301499 23.0622877,7.33333333 C23.6874292,8.79365168 24,10.3491975 24,12 C24,13.6689334 23.6874292,15.2290338 23.0622877,16.6802721 C22.4371461,18.1315184 21.580974,19.4013605 20.4937712,20.4897959 C19.4065685,21.5782313 18.1336362,22.4353741 16.6749717,23.0612245 C15.2163072,23.6870748 13.662523,24 12.01359,24 C10.3465468,24 8.78370081,23.6870748 7.32502831,23.0612245 C5.86636378,22.4353741 4.59343148,21.5782313 3.50622877,20.4897959 C2.41902605,19.4013605 1.56285391,18.1315184 0.937712344,16.6802721 C0.312570781,15.2290258 0,13.6689254 0,12 C0,10.3492055 0.312570781,8.79365965 0.937712344,7.33333333 C1.56285391,5.87301499 2.41902605,4.59863946 3.50622877,3.51020408 C4.59343148,2.42176871 5.86636378,1.56462585 7.32502831,0.93877551 C8.78369284,0.31292517 10.3465547,0 12.01359,0 Z M12.0407701,3.42857143 C11.5696498,3.42857143 11.1710079,3.59637197 10.8448471,3.93197279 C10.5186863,4.26757281 10.3556059,4.6712027 10.3556059,5.14285714 L10.3556059,10.2585034 L5.24575311,10.2585034 C4.77463282,10.2585034 4.37599094,10.4217687 4.04983012,10.7482993 C3.72366931,11.0748299 3.5605889,11.4739238 3.5605889,11.9455782 C3.5605889,12.4172327 3.72366931,12.8208626 4.04983012,13.1564626 C4.37599094,13.4920626 4.77463282,13.6598639 5.24575311,13.6598639 L10.3556059,13.6598639 L10.3556059,18.7482993 C10.3556059,19.2199538 10.5186863,19.6235837 10.8448471,19.9591837 C11.1710079,20.2947837 11.5696498,20.462585 12.0407701,20.462585 C12.5118904,20.462585 12.9150632,20.2947845 13.2502831,19.9591837 C13.5855031,19.6235837 13.7531144,19.2199538 13.7531144,18.7482993 L13.7531144,13.6598639 L18.8629672,13.6598639 C19.3340875,13.6598639 19.7327293,13.4920634 20.0588901,13.1564626 C20.385051,12.8208626 20.5481314,12.4172327 20.5481314,11.9455782 C20.5481314,11.4739238 20.385051,11.0748299 20.0588901,10.7482993 C19.7327293,10.4217687 19.3340875,10.2585034 18.8629672,10.2585034 L13.7531144,10.2585034 L13.7531144,5.14285714 C13.7531144,4.6712027 13.5855039,4.26757281 13.2502831,3.93197279 C12.9150632,3.59637277 12.5118904,3.42857143 12.0407701,3.42857143 Z" id="形状结合" fill-opacity="0.598884" fill="#2E59FF" filter="url(#filter-2)"></path>
                        <g id="路径">
                            <use fill="black" fill-opacity="1" filter="url(#filter-4)" xlink:href="#path-3"></use>
                            <use fill-opacity="0.8" fill="#FFFFFF" fill-rule="evenodd" xlink:href="#path-3"></use>
                        </g>
                        <g id="路径">
                            <use fill="black" fill-opacity="1" filter="url(#filter-6)" xlink:href="#path-5"></use>
                            <use fill="#FFFFFF" fill-rule="evenodd" xlink:href="#path-5"></use>
                        </g>
                    </g>
                </g>
            </g>
        </g>
    </g>
</svg>