<?xml version="1.0" encoding="UTF-8"?>
<svg width="24px" height="24px" viewBox="0 0 24 24" version="1.1" xmlns="http://www.w3.org/2000/svg" xmlns:xlink="http://www.w3.org/1999/xlink">
    <title>形状备份 7</title>
    <g id="页面-1" stroke="none" stroke-width="1" fill="none" fill-rule="evenodd">
        <g id="星球盲盒-购买后" transform="translate(-100.000000, -541.000000)" fill="#EEA588" fill-rule="nonzero">
            <g id="编组-8" transform="translate(100.000000, 444.000000)">
                <g id="编组-4备份" transform="translate(0.000000, 86.000000)">
                    <g id="攻击" transform="translate(0.000000, 11.000000)">
                        <path d="M10.8131302,2.68285718 C10.9676035,2.42057147 11.2496594,2.25999915 11.554602,2.25942861 L12.6221841,2.26285719 L12.6221841,2.26285719 C12.9294867,2.26357051 13.2129505,2.42834281 13.3653722,2.69485718 L15.4044196,6.26057146 L17.364514,5.14285718 L14.6749625,0.440571475 L14.6749624,0.440571428 C14.5228467,0.174586875 14.2401791,0.00989732141 13.9334906,0.00857142855 L10.241579,0 C9.93606519,0 9.65343539,0.160571518 9.49839087,0.423428571 L6.62862044,5.31257142 L8.59386395,6.45942856 L10.8131302,2.68285714 L10.8131302,2.68285718 Z M24,8.49771432 L21.6039477,6.98057146 L21.4769363,4.14171432 L15.8060502,10.3062857 L24,8.49771432 L24,8.49771432 Z M2.53851105,4.10400004 L2.41321605,6.9634286 L0,8.48914289 L8.24887363,10.3251429 L2.53851105,4.10400004 L2.53851105,4.10400004 Z M9.74726454,24 L11.9974254,22.8274286 L14.2596009,24 L11.9974254,16.8342857 L9.74726454,24 L9.74726454,24 Z M20.9276979,11.4582857 L18.9555889,12.5948572 L21.137095,16.392 L21.137095,16.392 C21.2890772,16.6563281 21.2890772,16.9813848 21.1370951,17.2457143 L20.6050204,18.1697143 L20.6050204,18.1697143 C20.4515949,18.43584 20.1675794,18.5998982 19.8601159,18.6 L15.7476937,18.6 L15.7476937,20.8542857 L21.1679897,20.8542857 L21.1679897,20.8542857 C21.4749356,20.8539247 21.758319,20.6898541 21.9111778,20.424 L23.7511264,17.2268571 L23.7511263,17.2268571 C23.903813,16.962717 23.903813,16.6372821 23.7511264,16.3731428 L20.9276979,11.4582857 L20.9276979,11.4582857 Z M3.36580133,18.1851429 L2.58828578,16.8188572 L5.01523278,12.6325715 L3.04312379,11.496 L0.217978974,16.392 L0.217978949,16.3920001 C0.0653386891,16.6567651 0.0653386891,16.9826626 0.217979,17.2474286 L2.05621114,20.4428572 C2.20954009,20.7091428 2.49388546,20.8731429 2.80111567,20.8731429 L8.29693201,20.8731429 L8.29693201,18.6188572 L4.11070588,18.6188572 C3.8017593,18.6188572 3.51741313,18.4531428 3.36580136,18.1851429 L3.36580133,18.1851429 Z" id="形状"></path>
                    </g>
                </g>
            </g>
        </g>
    </g>
</svg>