<?xml version="1.0" encoding="UTF-8"?>
<svg width="24px" height="24px" viewBox="0 0 24 24" version="1.1" xmlns="http://www.w3.org/2000/svg" xmlns:xlink="http://www.w3.org/1999/xlink">
    <title>能量备份 4</title>
    <g id="页面-1" stroke="none" stroke-width="1" fill="none" fill-rule="evenodd">
        <g id="星球盲盒-购买后" transform="translate(-100.000000, -455.000000)" fill="#D39F53" fill-rule="nonzero">
            <g id="编组-8" transform="translate(100.000000, 444.000000)">
                <g id="能量" transform="translate(0.000000, 11.000000)">
                    <path d="M20.0918813,8.11803084 L15.6136108,8.07363087 L18.7085175,1.30085366 L18.7085175,1.30085371 C18.7652065,1.17067606 18.7941695,1.03008278 18.7935554,0.888053958 L18.7935555,0.888054457 C18.7793475,0.645160071 18.6746219,0.416464114 18.5001147,0.24725484 L18.5001147,0.247254877 C18.3221933,0.0864230977 18.0905796,-0.00177544329 17.8509518,2.70932928e-05 L9.23459077,0.02405501 L9.23459076,0.0240550104 C8.88044534,0.0373351118 8.56628544,0.255604481 8.4297246,0.583254676 L8.41654973,0.624054652 L8.41654973,0.633654646 L3.08071821,13.1136237 L3.08071819,13.1136238 C3.01759684,13.2406491 2.99065896,13.3826533 3.00286655,13.5240235 L3.00286655,13.5240234 C3.02149774,14.02537 3.44225109,14.4166612 3.94264436,14.3979932 C3.94558261,14.3978836 3.94852031,14.3977597 3.95145737,14.3976214 L9.39746953,14.3976214 L7.39249276,23.1012022 L7.41524937,23.1012022 L7.41524937,23.1180021 L7.41524939,23.1180029 C7.4300638,23.6072299 7.82861866,23.9969977 8.31713068,24 L8.36743481,24 L8.36743484,24 C8.62433121,23.9890721 8.86383026,23.8669055 9.02378403,23.6652002 L20.7530176,9.679232 L20.7530176,9.67923199 C20.7800168,9.65315849 20.8005291,9.62109835 20.8129035,9.58563228 L20.8129035,9.58563225 C20.9375726,9.41623126 21.0032217,9.21047544 20.9998783,9.00002709 L20.9998783,9.00002709 C20.9817893,8.50984694 20.5814537,8.12091827 20.0918773,8.11803311 L20.0918813,8.11803084 Z M11.4683152,13.459223 L11.4467563,13.459223 L11.4467563,13.442423 L11.4467563,13.442424 C11.4327185,12.9409274 11.0155686,12.5457831 10.5150233,12.5598479 C10.5098017,12.5599946 10.5045815,12.5601866 10.4993632,12.5604237 L5.30007621,12.5604237 L9.87774318,1.85523476 L16.4795527,1.85523476 L13.384646,8.61362135 L13.384646,8.61362146 C13.3281612,8.7422192 13.2988024,8.88112286 13.2984105,9.02162122 L13.2984105,9.02162021 C13.3111442,9.50547773 13.7016951,9.89360015 14.1847191,9.90241968 L14.1847191,9.90241968 C14.2146321,9.90965141 14.2458327,9.90965141 14.2757457,9.90241968 L18.1587365,9.94561966 L10.0621661,19.5888092 L11.4683152,13.459223 Z" id="形状"></path>
                </g>
            </g>
        </g>
    </g>
</svg>