<?xml version="1.0" encoding="UTF-8"?>
<svg width="32px" height="32px" viewBox="0 0 32 32" version="1.1" xmlns="http://www.w3.org/2000/svg" xmlns:xlink="http://www.w3.org/1999/xlink">
    <title>地球</title>
    <g id="页面-1" stroke="none" stroke-width="1" fill="none" fill-rule="evenodd">
        <g id="侧边" transform="translate(-108.000000, -665.000000)" fill="#384C66" fill-rule="nonzero">
            <g id="地球" transform="translate(108.000000, 665.000000)">
                <path d="M16,3 C23.1799956,3 29,8.82000437 29,16 C29,23.1799956 23.1799956,29 16,29 C8.82000437,29 3,23.1799956 3,16 C3,8.82000437 8.82000437,3 16,3 Z M16,5.00000248 C15.2829665,5.00000248 14.5819536,5.06861338 13.9031687,5.19962794 C15.2542404,5.42950543 16.4481149,5.84526668 17.0704709,6.39218708 C18.8382174,7.94475358 17.6878179,10.6539023 14.9837033,10.9940271 L14.8554888,11.0079917 C13.9549593,11.0947719 13.4703688,11.7890134 13.2846072,12.7376107 L13.2674446,12.833867 C13.269462,12.8258789 13.2709763,12.8258789 13.2729954,12.8323625 L13.2861198,12.901687 C13.3037871,12.9949509 13.3335693,13.11365 13.3749612,13.2557891 L13.4506785,13.5031626 C13.5178146,13.7121332 13.5990843,13.9440449 13.7156889,14.2617412 L14.1760498,15.5025992 C14.3406085,15.9514623 14.4244024,16.1998332 14.5087,16.4866058 C14.8514477,17.6476649 13.8090725,18.4930237 12.5703382,18.6251899 C11.4093413,18.7488765 10.1907962,18.2660995 9.27512911,17.202294 C8.96216543,16.8382152 8.76227187,16.4437154 8.59720825,15.9414885 L8.50533808,15.6407503 L8.42457291,15.3484895 C8.25446137,14.7310544 8.21155512,14.6502591 8.02529156,14.618339 L7.99449992,14.6133516 C7.90802993,14.6015061 7.82082465,14.5956731 7.73352768,14.5958958 C7.29436759,14.5953971 6.78151036,14.7255673 6.25754694,14.9475052 C6.06673945,15.0283006 5.8890553,15.1155796 5.7310606,15.2018609 L5.57508305,15.2906362 L5.55640606,15.3021071 C5.3880823,15.4092212 5.19964472,15.4606427 5.01326261,15.4611136 L5.00368948,15.7116189 L5.00368948,15.7116189 L4.99998197,16.0000205 C4.99998197,17.2629367 5.21282689,18.4761537 5.60460084,19.6057554 C7.15580555,19.1515014 8.74129664,18.8726853 9.69710144,19.0580785 C11.3509247,19.3796793 12.6254563,20.6143969 13.126593,22.856983 L13.1379374,22.9139331 L13.2079772,22.985719 L13.378144,23.143648 C13.5315407,23.2833913 13.7308096,23.4614212 13.7687879,23.4968346 C14.9121107,24.5554384 15.368356,25.6001617 14.6664786,26.888971 L14.650122,26.9180327 C15.0925021,26.9721676 15.5429971,27.0000385 16,27.0000385 C17.7002928,27.0000385 19.3105014,26.614239 20.74786,25.9254059 L20.9285236,25.4085089 L21.1950483,24.6364644 C21.3409304,24.2095448 21.4656112,23.8374881 21.5625284,23.5367499 L21.7023531,23.0923754 L21.5418325,22.9567192 C21.4464026,22.883177 21.347525,22.8141094 21.2455268,22.7497449 L20.5433764,22.2924043 C19.929058,21.8934158 19.5479459,21.6141213 19.2137814,21.2834589 C18.4667034,20.5448307 17.9063957,19.2151966 17.9133985,17.9908028 C17.9230555,16.3399832 18.8998091,15.0143381 20.7957692,14.4273386 C21.0602747,14.345047 21.4686442,14.2692391 22.05419,14.1829575 L22.3722025,14.1380712 L22.7215105,14.0911898 L24.7890973,13.8393277 L24.7401334,13.715641 C24.6469751,13.485874 24.5440771,13.2600777 24.431713,13.0388549 L24.3741679,12.9306289 L24.0193053,12.9849913 L23.2671816,13.1071817 C23.0894983,13.1356097 22.9315027,13.1600479 22.7810768,13.182491 L22.6336804,13.2039367 C21.9098235,13.3081726 21.3449727,13.3600414 20.8770401,13.3505653 C19.9724703,13.3326108 19.3389712,13.1231414 19.1052563,12.3391272 C18.8523606,11.4882833 19.4686991,10.409016 20.6650318,8.91628335 L20.9042983,8.62352586 C21.4037661,8.02332425 21.9218348,7.47042536 22.3890126,7.04353003 C20.5881915,5.75752084 18.382536,5.00000248 16,5.00000248 Z M6.50568165,21.3477679 L6.40140331,21.3767612 C7.80859932,23.8834507 10.1692958,25.7829395 12.9919296,26.5836645 C13.0155118,26.0639106 12.8650981,25.31706 12.4848887,24.9550579 L11.9097751,24.4310208 C11.8643974,24.3889063 11.8259249,24.3530133 11.8012629,24.3286061 C11.4890437,24.0204062 11.2991465,23.7571903 11.2261493,23.3939536 C10.9045577,21.7983913 10.2130411,21.1111618 9.30942867,20.9355247 C8.82321287,20.8409362 7.65860311,21.0381346 6.50568165,21.3477679 Z M26.9433573,14.8766619 L26.9105009,14.9772489 C26.7790769,15.3200812 26.5002617,15.5982639 26.0707392,15.6831406 L25.9637255,15.7020926 C25.7732254,15.7308922 25.5822183,15.7563318 25.3907985,15.7783991 L23.5579352,15.996347 L22.818429,16.091107 C22.6508415,16.1135502 22.4953677,16.1354945 22.3515049,16.1564415 L22.1228388,16.1913531 C21.7624246,16.2477103 21.5080146,16.2970852 21.3989818,16.3309995 C20.3475205,16.6566736 19.937133,17.2132638 19.9325899,18.0022663 C19.9285517,18.690523 20.2733176,19.50895 20.6418092,19.8730288 C20.8159589,20.0455918 21.0506824,20.2251379 21.4166482,20.4705164 L22.2591298,21.0191258 L22.3181893,21.0580273 C22.5806759,21.2340813 22.7856162,21.3827049 22.9648147,21.5333224 C23.5816589,22.0520077 23.9153176,22.6041092 23.7335962,23.3237864 L23.676556,23.5307622 C23.6375299,23.6655771 23.5870902,23.8292992 23.5258719,24.020584 C25.664285,22.0156351 27.000018,19.1637747 27.000018,16.0000205 C27.000018,15.6207799 26.980825,15.2460209 26.9433573,14.8766619 Z M9.67758686,6.99851372 L9.54701492,7.09073938 C7.53211974,8.55268033 6.03245336,10.6814161 5.37201117,13.1529513 L5.46150809,13.1141481 L5.46150809,13.1141481 C6.21615773,12.7944588 6.9819106,12.5999515 7.73605448,12.600948 C7.9202997,12.600948 8.10202023,12.6134164 8.27970438,12.6388521 C9.49774364,12.8104174 9.97122789,13.4368318 10.3356793,14.6931487 L10.4825708,15.2148264 C10.5845368,15.550974 10.6829692,15.7584504 10.8137066,15.9100644 C11.2967827,16.4716429 11.8586047,16.6945783 12.3537956,16.6417112 L12.4189124,16.6327339 L12.4365798,16.6292428 L12.2775736,16.1823756 L11.8278131,14.9704454 C11.3134415,13.5724853 11.1816935,13.063277 11.2725542,12.5206495 C11.5683572,10.7685874 12.5102799,9.29532293 14.5147612,9.03898003 L14.6596334,9.02252172 C15.8105357,8.91180217 16.1134048,8.22105276 15.7287611,7.88290925 C15.064779,7.29929229 12.4098532,6.83925105 10.4690574,7.04991392 L10.2397628,7.07844786 C10.041014,7.1065147 9.84752295,7.07535114 9.67758686,6.99851372 Z M23.9175865,8.3638655 L23.8290765,8.44269442 C23.3892132,8.83982494 22.7897492,9.47897771 22.2480231,10.1551407 C21.9239533,10.5591175 21.6422851,10.9481321 21.4307825,11.2832832 L21.3964575,11.338643 L21.4575362,11.3346531 C21.6670207,11.3171973 21.9067909,11.2897668 22.1773559,11.2528604 L22.482245,11.2094703 L23.9027007,10.9830437 C23.9955807,10.9690791 24.0773553,10.9571094 24.154082,10.9466358 C24.3534707,10.9192053 24.5114675,10.9022484 24.6472528,10.8962635 C24.9788944,10.8808027 25.1797965,10.8997547 25.4579332,11.082791 C25.8049168,11.3113431 26.1621714,11.9212549 26.4888067,12.6735639 C25.9703812,11.0392638 25.0803129,9.56917043 23.9175865,8.3638655 Z" id="形状结合"></path>
            </g>
        </g>
    </g>
</svg>