<?xml version="1.0" encoding="UTF-8"?>
<svg width="64px" height="64px" viewBox="0 0 64 64" version="1.1" xmlns="http://www.w3.org/2000/svg" xmlns:xlink="http://www.w3.org/1999/xlink">
    <title>编组 39</title>
    <defs>
        <filter x="-80.0%" y="-85.3%" width="260.0%" height="270.7%" filterUnits="objectBoundingBox" id="filter-1">
            <feGaussianBlur stdDeviation="8" in="SourceGraphic"></feGaussianBlur>
        </filter>
        <filter x="-40.0%" y="-42.7%" width="180.0%" height="185.3%" filterUnits="objectBoundingBox" id="filter-2">
            <feGaussianBlur stdDeviation="4" in="SourceGraphic"></feGaussianBlur>
        </filter>
    </defs>
    <g id="页面-1" stroke="none" stroke-width="1" fill="none" fill-rule="evenodd">
        <g id="挖矿" transform="translate(-156.000000, -648.000000)">
            <g id="编组-39备份" transform="translate(156.000000, 648.000000)">
                <rect id="矩形" fill-opacity="0.15" fill="#BDDFFF" fill-rule="nonzero" x="0" y="0" width="64" height="64" rx="20"></rect>
                <g id="齿轮,设置,设定" transform="translate(17.000000, 18.000000)">
                    <path d="M17.1745241,0.940080921 C17.8716558,0.16185381 18.9421467,-0.169183095 19.957217,0.0834503322 C21.6460841,0.501602213 23.4720441,1.55278958 24.6767109,2.79853372 C25.4030113,3.54772251 25.6509451,4.63375586 25.3213389,5.62396275 C24.6446254,7.6566455 25.3913438,8.94594713 27.50024,9.37861817 C28.5269779,9.58769411 29.3495349,10.3455944 29.6383049,11.3474166 C30.1195883,13.0113126 30.1195883,15.1136874 29.6441387,16.7775834 C29.3553686,17.7794056 28.5328116,18.5373059 27.5060738,18.7463818 C25.3942607,19.176149 24.6475422,20.4654507 25.3271727,22.5010373 C25.6567789,23.4883403 25.408845,24.5772775 24.6825447,25.3264663 C23.4749609,26.5722104 21.6460841,27.6233978 19.9601339,28.0415497 C18.9421467,28.2941831 17.8716558,27.9631462 17.177441,27.1849191 C15.7481752,25.5820035 14.2518215,25.5820035 12.8225557,27.1849191 C12.125424,27.9631462 11.0549331,28.2941831 10.0398628,28.0415497 C8.35391254,27.620494 6.52503574,26.5722104 5.31745201,25.3264663 C4.59115165,24.5772775 4.3432178,23.4883403 4.67282398,22.5010373 C5.34953757,20.4683545 4.60281913,19.1790529 2.49392291,18.7463818 C1.47010193,18.5344021 0.647544896,17.7794056 0.358774875,16.7775834 C-0.119591625,15.1107835 -0.119591625,13.0113126 0.358774875,11.3474166 C0.647544896,10.3455944 1.47010193,9.59059795 2.49392291,9.37861817 C4.605736,8.94885096 5.35245444,7.65954933 4.67282398,5.62396275 C4.3432178,4.6366597 4.59115165,3.54772251 5.31745201,2.79853372 C6.52503574,1.55278958 8.35099567,0.501602213 10.0369459,0.0834503322 C11.0549331,-0.169183095 12.125424,0.16185381 12.8196388,0.940080921 C14.2489046,2.54299646 15.7452583,2.54299646 17.1745241,0.940080921 Z M14.9985399,7.55791519 C11.3903731,7.55791519 8.46475356,10.4704592 8.46475356,14.0625 C8.46475356,17.6545408 11.3903731,20.5670848 14.9985399,20.5670848 C18.6067067,20.5670848 21.5323262,17.6545408 21.5323262,14.0625 C21.5323262,10.4704592 18.6067067,7.55791519 14.9985399,7.55791519 Z M15,9.375 C16.2509766,9.375 17.4287109,9.86132812 18.3134766,10.7490234 C19.2011719,11.6337891 19.6875,12.8115234 19.6875,14.0625 C19.6875,15.3134766 19.2011719,16.4912109 18.3134766,17.3759766 C17.4287109,18.2636719 16.2509766,18.75 15,18.75 C13.7490234,18.75 12.5712891,18.2636719 11.6865234,17.3759766 C10.7988281,16.4912109 10.3125,15.3134766 10.3125,14.0625 C10.3125,12.8115234 10.7988281,11.6337891 11.6865234,10.7490234 C12.5712891,9.86132812 13.7490234,9.375 15,9.375 Z" id="形状结合" fill-opacity="0.598884" fill="#2E59FF" filter="url(#filter-1)"></path>
                    <path d="M17.1745241,0.940080921 C17.8716558,0.16185381 18.9421467,-0.169183095 19.957217,0.0834503322 C21.6460841,0.501602213 23.4720441,1.55278958 24.6767109,2.79853372 C25.4030113,3.54772251 25.6509451,4.63375586 25.3213389,5.62396275 C24.6446254,7.6566455 25.3913438,8.94594713 27.50024,9.37861817 C28.5269779,9.58769411 29.3495349,10.3455944 29.6383049,11.3474166 C30.1195883,13.0113126 30.1195883,15.1136874 29.6441387,16.7775834 C29.3553686,17.7794056 28.5328116,18.5373059 27.5060738,18.7463818 C25.3942607,19.176149 24.6475422,20.4654507 25.3271727,22.5010373 C25.6567789,23.4883403 25.408845,24.5772775 24.6825447,25.3264663 C23.4749609,26.5722104 21.6460841,27.6233978 19.9601339,28.0415497 C18.9421467,28.2941831 17.8716558,27.9631462 17.177441,27.1849191 C15.7481752,25.5820035 14.2518215,25.5820035 12.8225557,27.1849191 C12.125424,27.9631462 11.0549331,28.2941831 10.0398628,28.0415497 C8.35391254,27.620494 6.52503574,26.5722104 5.31745201,25.3264663 C4.59115165,24.5772775 4.3432178,23.4883403 4.67282398,22.5010373 C5.34953757,20.4683545 4.60281913,19.1790529 2.49392291,18.7463818 C1.47010193,18.5344021 0.647544896,17.7794056 0.358774875,16.7775834 C-0.119591625,15.1107835 -0.119591625,13.0113126 0.358774875,11.3474166 C0.647544896,10.3455944 1.47010193,9.59059795 2.49392291,9.37861817 C4.605736,8.94885096 5.35245444,7.65954933 4.67282398,5.62396275 C4.3432178,4.6366597 4.59115165,3.54772251 5.31745201,2.79853372 C6.52503574,1.55278958 8.35099567,0.501602213 10.0369459,0.0834503322 C11.0549331,-0.169183095 12.125424,0.16185381 12.8196388,0.940080921 C14.2489046,2.54299646 15.7452583,2.54299646 17.1745241,0.940080921 Z M14.9985399,7.55791519 C11.3903731,7.55791519 8.46475356,10.4704592 8.46475356,14.0625 C8.46475356,17.6545408 11.3903731,20.5670848 14.9985399,20.5670848 C18.6067067,20.5670848 21.5323262,17.6545408 21.5323262,14.0625 C21.5323262,10.4704592 18.6067067,7.55791519 14.9985399,7.55791519 Z M15,9.375 C16.2509766,9.375 17.4287109,9.86132812 18.3134766,10.7490234 C19.2011719,11.6337891 19.6875,12.8115234 19.6875,14.0625 C19.6875,15.3134766 19.2011719,16.4912109 18.3134766,17.3759766 C17.4287109,18.2636719 16.2509766,18.75 15,18.75 C13.7490234,18.75 12.5712891,18.2636719 11.6865234,17.3759766 C10.7988281,16.4912109 10.3125,15.3134766 10.3125,14.0625 C10.3125,12.8115234 10.7988281,11.6337891 11.6865234,10.7490234 C12.5712891,9.86132812 13.7490234,9.375 15,9.375 Z" id="形状结合" fill-opacity="0.598884" fill="#2E59FF" filter="url(#filter-2)"></path>
                    <path d="M29.6383049,11.3474166 C29.3495349,10.3455944 28.5269779,9.58769411 27.50024,9.37861817 C25.3913438,8.94594713 24.6446254,7.6566455 25.3213389,5.62396275 C25.6509451,4.63375586 25.4030113,3.54772251 24.6767109,2.79853372 C23.4720441,1.55278958 21.6460841,0.501602213 19.957217,0.0834503322 C18.9421467,-0.169183095 17.8716558,0.16185381 17.1745241,0.940080921 C15.7452583,2.54299646 14.2489046,2.54299646 12.8196388,0.940080921 C12.125424,0.16185381 11.0549331,-0.169183095 10.0369459,0.0834503322 C8.35099567,0.501602213 6.52503574,1.55278958 5.31745201,2.79853372 C4.59115165,3.54772251 4.3432178,4.6366597 4.67282398,5.62396275 C5.35245444,7.65954933 4.605736,8.94885096 2.49392291,9.37861817 C1.47010193,9.59059795 0.647544896,10.3455944 0.358774875,11.3474166 C-0.119591625,13.0113126 -0.119591625,15.1107835 0.358774875,16.7775834 C0.647544896,17.7794056 1.47010193,18.5344021 2.49392291,18.7463818 C4.60281913,19.1790529 5.34953757,20.4683545 4.67282398,22.5010373 C4.3432178,23.4883403 4.59115165,24.5772775 5.31745201,25.3264663 C6.52503574,26.5722104 8.35391254,27.620494 10.0398628,28.0415497 C11.0549331,28.2941831 12.125424,27.9631462 12.8225557,27.1849191 C14.2518215,25.5820035 15.7481752,25.5820035 17.177441,27.1849191 C17.8716558,27.9631462 18.9421467,28.2941831 19.9601339,28.0415497 C21.6460841,27.6233978 23.4749609,26.5722104 24.6825447,25.3264663 C25.408845,24.5772775 25.6567789,23.4883403 25.3271727,22.5010373 C24.6475422,20.4654507 25.3942607,19.176149 27.5060738,18.7463818 C28.5328116,18.5373059 29.3553686,17.7794056 29.6441387,16.7775834 C30.1195883,15.1136874 30.1195883,13.0113126 29.6383049,11.3474166 Z M14.9985399,21.5625 C10.838205,21.5625 7.46486957,18.2042411 7.46486957,14.0625 C7.46486957,9.92075893 10.838205,6.5625 14.9985399,6.5625 C19.1588748,6.5625 22.5322102,9.92075893 22.5322102,14.0625 C22.5322102,18.2042411 19.1588748,21.5625 14.9985399,21.5625 Z" id="形状" fill="#FFFFFF"></path>
                    <path d="M19.6875,14.0625 C19.6875,15.3134766 19.2011719,16.4912109 18.3134766,17.3759766 C17.4287109,18.2636719 16.2509766,18.75 15,18.75 C13.7490234,18.75 12.5712891,18.2636719 11.6865234,17.3759766 C10.7988281,16.4912109 10.3125,15.3134766 10.3125,14.0625 C10.3125,12.8115234 10.7988281,11.6337891 11.6865234,10.7490234 C12.5712891,9.86132812 13.7490234,9.375 15,9.375 C16.2509766,9.375 17.4287109,9.86132812 18.3134766,10.7490234 C19.2011719,11.6337891 19.6875,12.8115234 19.6875,14.0625 Z" id="路径" fill-opacity="0.7" fill="#FFFFFF" fill-rule="nonzero"></path>
                </g>
            </g>
        </g>
    </g>
</svg>