<?xml version="1.0" encoding="UTF-8"?>
<svg width="44px" height="44px" viewBox="0 0 44 44" version="1.1" xmlns="http://www.w3.org/2000/svg" xmlns:xlink="http://www.w3.org/1999/xlink">
    <title>编组 39</title>
    <defs>
        <filter x="-57.1%" y="-57.1%" width="214.3%" height="214.3%" filterUnits="objectBoundingBox" id="filter-1">
            <feGaussianBlur stdDeviation="4" in="SourceGraphic"></feGaussianBlur>
        </filter>
        <filter x="-28.6%" y="-28.6%" width="157.1%" height="157.1%" filterUnits="objectBoundingBox" id="filter-2">
            <feGaussianBlur stdDeviation="2" in="SourceGraphic"></feGaussianBlur>
        </filter>
        <path d="M19.5793582,11.1794651 L12.2940156,11.1794651 C11.5836947,11.1794651 11.0008673,11.7592752 11.0008673,12.4659189 L11.0008673,19.7135462 C11.0008673,20.4201898 11.5836947,21 12.2940156,21 L19.5793582,21 C20.2896791,21 20.8725065,20.4201898 20.8725065,19.7135462 L20.8725065,12.4659189 C20.8725065,11.7592752 20.2896791,11.1794651 19.5793582,11.1794651 Z M19.3061578,19.4598792 L12.5490026,19.4598792 L12.5490026,12.7377049 L19.3243712,12.7377049 L19.3243712,19.4598792 L19.3061578,19.4598792 Z M7.23070252,19.4598792 C5.30008673,19.4598792 3.71552472,17.9016393 3.71552472,15.9810181 L3.71552472,14.2597066 L5.86470078,14.2597066 L2.93235039,11.3606557 L0,14.2597066 L2.14917606,14.2597066 L2.14917606,15.9810181 C2.14917606,18.7532355 4.42584562,21 7.23070252,21 C7.66782307,21 8.01387684,20.6557377 8.01387684,20.2208801 C8.01387684,19.7860224 7.66782307,19.4598792 7.23070252,19.4598792 Z M13.7692975,0 C16.5741544,0 18.8508239,2.26488352 18.8508239,5.03710095 L18.8508239,5.03710095 L18.8508239,6.75841242 L21,6.75841242 L18.085863,9.6755824 L15.1535126,6.75841242 L17.2844753,6.75841242 L17.2844753,5.03710095 C17.2844753,3.11647972 15.6999133,1.55823986 13.7692975,1.55823986 C13.3503903,1.55823986 12.9861232,1.21397757 12.9861232,0.779119931 C12.9861232,0.344262295 13.3321769,0 13.7692975,0 Z M7.67701863,0 C8.40372671,0 9,0.596273292 9,1.34161491 L9,1.34161491 L9,7.67701863 C9,8.40372671 8.40372671,9 7.67701863,9 L7.67701863,9 L1.32298137,9 C0.596273292,9 0,8.40372671 0,7.67701863 L0,7.67701863 L0,1.32298137 C0,0.596273292 0.596273292,0 1.32298137,0 L1.32298137,0 Z" id="path-3"></path>
        <filter x="-33.3%" y="-23.8%" width="166.7%" height="166.7%" filterUnits="objectBoundingBox" id="filter-4">
            <feOffset dx="0" dy="2" in="SourceAlpha" result="shadowOffsetOuter1"></feOffset>
            <feGaussianBlur stdDeviation="2" in="shadowOffsetOuter1" result="shadowBlurOuter1"></feGaussianBlur>
            <feColorMatrix values="0 0 0 0 0.0557217466   0 0 0 0 0.239916201   0 0 0 0 0.627763057  0 0 0 0.5 0" type="matrix" in="shadowBlurOuter1"></feColorMatrix>
        </filter>
    </defs>
    <g id="页面-1" stroke="none" stroke-width="1" fill="none" fill-rule="evenodd">
        <g id="我的星球-闲置" transform="translate(-315.000000, -549.000000)">
            <g id="编组-3" transform="translate(16.000000, 544.000000)">
                <g id="编组-39" transform="translate(299.000000, 5.000000)">
                    <rect id="矩形" fill-opacity="0.15" fill="#BDDFFF" fill-rule="nonzero" x="0" y="0" width="44" height="44" rx="12"></rect>
                    <g id="更换" transform="translate(12.000000, 11.000000)">
                        <path d="M2.93235039,11.3606557 L5.86470078,14.2597066 L3.71552472,14.2597066 L3.71552472,15.9810181 C3.71552472,17.9016393 5.30008673,19.4598792 7.23070252,19.4598792 C7.66782307,19.4598792 8.01387684,19.7860224 8.01387684,20.2208801 C8.01387684,20.6557377 7.66782307,21 7.23070252,21 C4.42584562,21 2.14917606,18.7532355 2.14917606,15.9810181 L2.14917606,15.9810181 L2.14917606,14.2597066 L0,14.2597066 L2.93235039,11.3606557 Z M19.5793582,11.1794651 C20.2896791,11.1794651 20.8725065,11.7592752 20.8725065,12.4659189 L20.8725065,12.4659189 L20.8725065,19.7135462 C20.8725065,20.4201898 20.2896791,21 19.5793582,21 L19.5793582,21 L12.2940156,21 C11.5836947,21 11.0008673,20.4201898 11.0008673,19.7135462 L11.0008673,19.7135462 L11.0008673,12.4659189 C11.0008673,11.7592752 11.5836947,11.1794651 12.2940156,11.1794651 L12.2940156,11.1794651 Z M19.3243712,12.7377049 L12.5490026,12.7377049 L12.5490026,19.4598792 L19.3243712,19.4598792 L19.3243712,12.7377049 Z M13.7692975,0 C16.5741544,0 18.8508239,2.26488352 18.8508239,5.03710095 L18.8508239,5.03710095 L18.8508239,6.75841242 L21,6.75841242 L18.085863,9.6755824 L15.1535126,6.75841242 L17.2844753,6.75841242 L17.2844753,5.03710095 C17.2844753,3.11647972 15.6999133,1.55823986 13.7692975,1.55823986 C13.3503903,1.55823986 12.9861232,1.21397757 12.9861232,0.779119931 C12.9861232,0.344262295 13.3321769,0 13.7692975,0 Z M7.67701863,0 C8.40372671,0 9,0.596273292 9,1.34161491 L9,1.34161491 L9,7.67701863 C9,8.40372671 8.40372671,9 7.67701863,9 L7.67701863,9 L1.32298137,9 C0.596273292,9 0,8.40372671 0,7.67701863 L0,7.67701863 L0,1.32298137 C0,0.596273292 0.596273292,0 1.32298137,0 L1.32298137,0 Z" id="形状结合" fill-opacity="0.598884" fill="#2E59FF" filter="url(#filter-1)"></path>
                        <path d="M2.93235039,11.3606557 L5.86470078,14.2597066 L3.71552472,14.2597066 L3.71552472,15.9810181 C3.71552472,17.9016393 5.30008673,19.4598792 7.23070252,19.4598792 C7.66782307,19.4598792 8.01387684,19.7860224 8.01387684,20.2208801 C8.01387684,20.6557377 7.66782307,21 7.23070252,21 C4.42584562,21 2.14917606,18.7532355 2.14917606,15.9810181 L2.14917606,15.9810181 L2.14917606,14.2597066 L0,14.2597066 L2.93235039,11.3606557 Z M19.5793582,11.1794651 C20.2896791,11.1794651 20.8725065,11.7592752 20.8725065,12.4659189 L20.8725065,12.4659189 L20.8725065,19.7135462 C20.8725065,20.4201898 20.2896791,21 19.5793582,21 L19.5793582,21 L12.2940156,21 C11.5836947,21 11.0008673,20.4201898 11.0008673,19.7135462 L11.0008673,19.7135462 L11.0008673,12.4659189 C11.0008673,11.7592752 11.5836947,11.1794651 12.2940156,11.1794651 L12.2940156,11.1794651 Z M19.3243712,12.7377049 L12.5490026,12.7377049 L12.5490026,19.4598792 L19.3243712,19.4598792 L19.3243712,12.7377049 Z M13.7692975,0 C16.5741544,0 18.8508239,2.26488352 18.8508239,5.03710095 L18.8508239,5.03710095 L18.8508239,6.75841242 L21,6.75841242 L18.085863,9.6755824 L15.1535126,6.75841242 L17.2844753,6.75841242 L17.2844753,5.03710095 C17.2844753,3.11647972 15.6999133,1.55823986 13.7692975,1.55823986 C13.3503903,1.55823986 12.9861232,1.21397757 12.9861232,0.779119931 C12.9861232,0.344262295 13.3321769,0 13.7692975,0 Z M7.67701863,0 C8.40372671,0 9,0.596273292 9,1.34161491 L9,1.34161491 L9,7.67701863 C9,8.40372671 8.40372671,9 7.67701863,9 L7.67701863,9 L1.32298137,9 C0.596273292,9 0,8.40372671 0,7.67701863 L0,7.67701863 L0,1.32298137 C0,0.596273292 0.596273292,0 1.32298137,0 L1.32298137,0 Z" id="形状结合" fill-opacity="0.598884" fill="#2E59FF" filter="url(#filter-2)"></path>
                        <g id="形状">
                            <use fill="black" fill-opacity="1" filter="url(#filter-4)" xlink:href="#path-3"></use>
                            <use fill="#FFFFFF" fill-rule="evenodd" xlink:href="#path-3"></use>
                        </g>
                    </g>
                </g>
            </g>
        </g>
    </g>
</svg>