<?xml version="1.0" encoding="UTF-8"?>
<svg width="16px" height="16px" viewBox="0 0 16 16" version="1.1" xmlns="http://www.w3.org/2000/svg" xmlns:xlink="http://www.w3.org/1999/xlink">
    <title>编组 9备份</title>
    <g id="页面-1" stroke="none" stroke-width="1" fill="none" fill-rule="evenodd">
        <g id="挖矿" transform="translate(-266.000000, -640.000000)">
            <g id="编组-9备份" transform="translate(266.000000, 640.000000)">
                <circle id="椭圆形" fill="#203BB5" cx="8" cy="8" r="8"></circle>
                <g id="编组备份" transform="translate(3.428571, 2.285714)" fill="#FFFFFF">
                    <path d="M9.14285714,5.70345456 C9.14863039,8.20310208 7.12136048,10.2584787 4.62184737,10.2854428 C2.60641406,10.3071521 0.887691938,9.02468477 0.25716739,7.22966047 C3.09105118,9.85600746 8.09453603,6.43748351 7.93529925,5.24320689 C7.80780367,4.28706902 3.73091762,4.07838909 0.0135351258,6.06831934 C0.0045117086,5.95154562 0,5.83344494 0,5.71428267 C0,3.18958188 2.04672334,1.14285714 4.57142239,1.14285714 C5.63353168,1.14285714 6.61124547,1.50512105 7.38725935,2.11287516 C5.42493151,1.00962895 2.29672507,1.76255401 1.56582828,4.6858778 C2.4870661,3.90102574 6.88866247,2.81415439 8.63716187,4.2992241 C8.90874019,4.52987873 9.0769473,4.85862328 9.11564184,5.21284572 C9.1332375,5.37396691 9.1424467,5.53766242 9.14285714,5.70345456" id="Fill-1"></path>
                    <path d="M7.70793065,11.3671285 C6.94447925,11.825812 4.92118304,9.6668778 3.18889641,6.54494849 C1.45663542,3.42301917 0.671412157,0.520158578 1.43483791,0.061475118 C1.88463595,-0.208825257 2.77166641,0.429435846 3.7784806,1.63764917 C3.14607071,0.91773761 2.62626419,0.553512524 2.36369394,0.711209979 C1.82642377,1.03407617 2.56959066,3.41955036 4.0233564,6.03930267 C5.47686569,8.65934849 7.09090724,10.521566 7.62789532,10.1989666 C7.8951328,10.0385742 7.84561398,9.36802644 7.54968072,8.41226246 C8.06794859,9.95158708 8.16311396,11.0936262 7.70793065,11.3671285" id="Fill-3"></path>
                </g>
            </g>
        </g>
    </g>
</svg>