<?xml version="1.0" encoding="UTF-8"?>
<svg width="42px" height="42px" viewBox="0 0 42 42" version="1.1" xmlns="http://www.w3.org/2000/svg" xmlns:xlink="http://www.w3.org/1999/xlink">
    <title>编组 2</title>
    <defs>
        <filter x="-50.0%" y="-50.0%" width="200.0%" height="200.0%" filterUnits="objectBoundingBox" id="filter-1">
            <feGaussianBlur stdDeviation="4" in="SourceGraphic"></feGaussianBlur>
        </filter>
        <filter x="-25.0%" y="-25.0%" width="150.0%" height="150.0%" filterUnits="objectBoundingBox" id="filter-2">
            <feGaussianBlur stdDeviation="2" in="SourceGraphic"></feGaussianBlur>
        </filter>
        <path d="M28.9745549,9.70710678 L32.147829,12.8803809 C32.5383533,13.2709052 32.5383533,13.9040701 32.147829,14.2945944 L14.2945944,32.147829 C13.9040701,32.5383533 13.2709052,32.5383533 12.8803809,32.147829 L9.70710678,28.9745549 C9.31658249,28.5840306 9.31658249,27.9508656 9.70710678,27.5603413 L27.5603413,9.70710678 C27.9508656,9.31658249 28.5840306,9.31658249 28.9745549,9.70710678 Z" id="path-3"></path>
        <filter x="-27.6%" y="-19.2%" width="155.2%" height="155.2%" filterUnits="objectBoundingBox" id="filter-4">
            <feOffset dx="0" dy="2" in="SourceAlpha" result="shadowOffsetOuter1"></feOffset>
            <feGaussianBlur stdDeviation="2" in="shadowOffsetOuter1" result="shadowBlurOuter1"></feGaussianBlur>
            <feColorMatrix values="0 0 0 0 0.0557217466   0 0 0 0 0.239916201   0 0 0 0 0.627763057  0 0 0 0.5 0" type="matrix" in="shadowBlurOuter1"></feColorMatrix>
        </filter>
    </defs>
    <g id="页面-1" stroke="none" stroke-width="1" fill="none" fill-rule="evenodd">
        <g id="星球盲盒-授权" transform="translate(-16.000000, -80.000000)">
            <g id="编组-2" transform="translate(16.000000, 80.000000)">
                <rect id="矩形" fill-opacity="0.1" fill="#FFFFFF" x="0" y="0" width="42" height="42" rx="16"></rect>
                <path d="M14.0707797,9.29807522 L21,16.228 L27.9292203,9.29807522 C28.3197446,8.90755093 28.9529096,8.90755093 29.3434339,9.29807522 L32.7019248,12.6565661 C33.0924491,13.0470904 33.0924491,13.6802554 32.7019248,14.0707797 L25.772,21 L32.7019248,27.9292203 C33.0924491,28.3197446 33.0924491,28.9529096 32.7019248,29.3434339 L29.3434339,32.7019248 C28.9529096,33.0924491 28.3197446,33.0924491 27.9292203,32.7019248 L21,25.772 L14.0707797,32.7019248 C13.6802554,33.0924491 13.0470904,33.0924491 12.6565661,32.7019248 L9.29807522,29.3434339 C8.90755093,28.9529096 8.90755093,28.3197446 9.29807522,27.9292203 L16.228,21 L9.29807522,14.0707797 C8.90755093,13.6802554 8.90755093,13.0470904 9.29807522,12.6565661 L12.6565661,9.29807522 C13.0470904,8.90755093 13.6802554,8.90755093 14.0707797,9.29807522 Z" id="形状结合" fill-opacity="0.598884" fill="#2E59FF" filter="url(#filter-1)"></path>
                <path d="M14.0707797,9.29807522 L21,16.228 L27.9292203,9.29807522 C28.3197446,8.90755093 28.9529096,8.90755093 29.3434339,9.29807522 L32.7019248,12.6565661 C33.0924491,13.0470904 33.0924491,13.6802554 32.7019248,14.0707797 L25.772,21 L32.7019248,27.9292203 C33.0924491,28.3197446 33.0924491,28.9529096 32.7019248,29.3434339 L29.3434339,32.7019248 C28.9529096,33.0924491 28.3197446,33.0924491 27.9292203,32.7019248 L21,25.772 L14.0707797,32.7019248 C13.6802554,33.0924491 13.0470904,33.0924491 12.6565661,32.7019248 L9.29807522,29.3434339 C8.90755093,28.9529096 8.90755093,28.3197446 9.29807522,27.9292203 L16.228,21 L9.29807522,14.0707797 C8.90755093,13.6802554 8.90755093,13.0470904 9.29807522,12.6565661 L12.6565661,9.29807522 C13.0470904,8.90755093 13.6802554,8.90755093 14.0707797,9.29807522 Z" id="形状结合" fill-opacity="0.598884" fill="#2E59FF" filter="url(#filter-2)"></path>
                <path d="M9.70710678,12.8803809 L12.8803809,9.70710678 C13.2709052,9.31658249 13.9040701,9.31658249 14.2945944,9.70710678 L32.147829,27.5603413 C32.5383533,27.9508656 32.5383533,28.5840306 32.147829,28.9745549 L28.9745549,32.147829 C28.5840306,32.5383533 27.9508656,32.5383533 27.5603413,32.147829 L9.70710678,14.2945944 C9.31658249,13.9040701 9.31658249,13.2709052 9.70710678,12.8803809 Z" id="矩形" fill="#FFFFFF"></path>
                <g id="矩形">
                    <use fill="black" fill-opacity="1" filter="url(#filter-4)" xlink:href="#path-3"></use>
                    <use fill="#FFFFFF" fill-rule="evenodd" xlink:href="#path-3"></use>
                </g>
            </g>
        </g>
    </g>
</svg>