<?xml version="1.0" encoding="UTF-8"?>
<svg width="24px" height="24px" viewBox="0 0 24 24" version="1.1" xmlns="http://www.w3.org/2000/svg" xmlns:xlink="http://www.w3.org/1999/xlink">
    <title>复制</title>
    <g id="页面-1" stroke="none" stroke-width="1" fill="none" fill-rule="evenodd">
        <g id="侧边" transform="translate(-335.000000, -128.000000)" fill="#000000" fill-rule="nonzero">
            <g id="编组-12" transform="translate(111.000000, 79.000000)">
                <g id="复制" transform="translate(224.000000, 49.000000)">
                    <path d="M16.9550372,3.97336824 L5.10117755,3.97336824 L5.10117755,19.1796118 L3.14252413,19.1796118 L3.14252413,2.18109849 L16.1380717,2.18109849 L16.1380717,3.4621917 L18.2803703,3.4621917 L18.2803703,0 L1,0 L1,21.3606963 L5.10095197,21.3606963 L5.10095197,24 L22,24 L22,8.95218262 L16.9550418,3.9733612 L16.9550372,3.97336824 Z M16.3817787,6.44531404 L19.3486388,9.37312795 L16.3817787,9.37336233 L16.3817787,6.44531404 L16.3817787,6.44531404 Z M7.24346459,21.8191501 L7.24346459,6.15422527 L14.2394824,6.15422527 L14.2394824,11.5544538 L19.8579201,11.5539851 L19.8579201,21.8191501 L7.24346459,21.8191501 L7.24346459,21.8191501 Z" id="形状"></path>
                </g>
            </g>
        </g>
    </g>
</svg>