<?xml version="1.0" encoding="UTF-8"?>
<svg width="64px" height="64px" viewBox="0 0 64 64" version="1.1" xmlns="http://www.w3.org/2000/svg" xmlns:xlink="http://www.w3.org/1999/xlink">
    <title>编组 39备份 3</title>
    <defs>
        <filter x="-218.2%" y="-80.0%" width="536.4%" height="260.0%" filterUnits="objectBoundingBox" id="filter-1">
            <feGaussianBlur stdDeviation="8" in="SourceGraphic"></feGaussianBlur>
        </filter>
        <filter x="-109.1%" y="-40.0%" width="318.2%" height="180.0%" filterUnits="objectBoundingBox" id="filter-2">
            <feGaussianBlur stdDeviation="4" in="SourceGraphic"></feGaussianBlur>
        </filter>
    </defs>
    <g id="页面-1" stroke="none" stroke-width="1" fill="none" fill-rule="evenodd">
        <g id="挖矿" transform="translate(-60.000000, -648.000000)">
            <g id="编组-39备份-2" transform="translate(60.000000, 648.000000)">
                <rect id="矩形" fill-opacity="0.15" fill="#BDDFFF" fill-rule="nonzero" x="0" y="0" width="64" height="64" rx="20"></rect>
                <g id="66-information" transform="translate(26.000000, 18.000000)">
                    <path d="M10.1648718,26.7404936 C10.1648718,28.0658609 9.01326063,29.9194325 7.59267393,29.9194325 C6.68309965,29.9731442 5.96441038,30 5.4366061,30 C4.90880183,30 4.23237519,29.9731442 3.40732619,29.9194325 C1.98673937,29.9194324 0.835128206,28.0658609 0.835128206,26.7404936 L0,13.7144465 C0,12.3890796 1.15161117,11.314659 2.57219787,11.314659 L8.42780202,11.314659 C9.84838861,11.314659 11,12.3890796 11,13.7144469 L10.1648718,26.7404936 Z M3.40732619,0 C1.98673937,0 0.835128206,1.07442101 0.835128206,2.39978822 L0.835128206,6.51371027 C0.835128206,7.83907712 1.98673937,8.91349776 3.40732607,8.91349776 L7.59267381,8.91349776 C9.0132604,8.91349776 10.1648716,7.83907712 10.1648716,6.5137099 L10.1648716,2.39978786 C10.1648716,1.07442065 9.0132604,0 7.5926737,0 L3.40732619,0 Z" id="形状" fill-opacity="0.598884" fill="#2E59FF" filter="url(#filter-1)"></path>
                    <path d="M10.1648718,26.7404936 C10.1648718,28.0658609 9.01326063,29.9194325 7.59267393,29.9194325 C6.68309965,29.9731442 5.96441038,30 5.4366061,30 C4.90880183,30 4.23237519,29.9731442 3.40732619,29.9194325 C1.98673937,29.9194324 0.835128206,28.0658609 0.835128206,26.7404936 L0,13.7144465 C0,12.3890796 1.15161117,11.314659 2.57219787,11.314659 L8.42780202,11.314659 C9.84838861,11.314659 11,12.3890796 11,13.7144469 L10.1648718,26.7404936 Z M3.40732619,0 C1.98673937,0 0.835128206,1.07442101 0.835128206,2.39978822 L0.835128206,6.51371027 C0.835128206,7.83907712 1.98673937,8.91349776 3.40732607,8.91349776 L7.59267381,8.91349776 C9.0132604,8.91349776 10.1648716,7.83907712 10.1648716,6.5137099 L10.1648716,2.39978786 C10.1648716,1.07442065 9.0132604,0 7.5926737,0 L3.40732619,0 Z" id="形状" fill-opacity="0.598884" fill="#2E59FF" filter="url(#filter-2)"></path>
                    <path d="M10.1648718,26.6856039 C10.1648718,28.0332902 9.01326063,29.9180758 7.59267393,29.9180758 C6.68309965,29.9726919 5.96441038,30 5.4366061,30 C4.90880183,30 4.23237519,29.9726919 3.40732619,29.9180758 C1.98673937,29.9180757 0.835128206,28.0332902 0.835128206,26.6856039 L0,13.4401996 C0,12.0925138 1.15161117,11 2.57219787,11 L8.42780202,11 C9.84838861,11 11,12.0925138 11,13.4402 L10.1648718,26.6856039 Z" id="形状" fill="#FFFFFF"></path>
                    <path d="M3.48128817,0 C2.1109095,0 1,1.08484787 1,2.42307729 L1,6.57692344 C1,7.91515249 2.1109095,9 3.48128806,9 L7.51871205,9 C8.8890905,9 10,7.91515249 10,6.57692308 L10,2.42307692 C10,1.08484751 8.8890905,0 7.51871194,0 L3.48128817,0 Z" id="路径" fill-opacity="0.7" fill="#FFFFFF" fill-rule="nonzero"></path>
                </g>
            </g>
        </g>
    </g>
</svg>